<svg width="528" height="495" xmlns="http://www.w3.org/2000/svg" xmlns:svg="http://www.w3.org/2000/svg" version="1.1">
 <g class="layer">
  <title>Layer 1</title>
  <g class="layer" id="svg_1">
   <path d="m489.23,0l-450.16,0c-21.543,0 -39.07,17.898 -39.07,39.891l0,337.71c0,21.992 17.527,39.891 39.07,39.891l98.699,0c-10.414,16.441 -18.133,25.484 -18.133,42.73l0,12.363c0,12.406 10.043,22.504 22.395,22.504l244.29,0c12.406,0 22.504,-10.098 22.504,-22.504l0,-12.363c0,-16.18 -6.4453,-23.992 -18.137,-42.73l98.535,0c21.539,0 39.066,-17.898 39.066,-39.891l0,-337.71c0,-21.996 -17.523,-39.891 -39.062,-39.891l0.003,0zm-101.54,460.21l0,12.363c0,0.71875 -0.65625,1.3711 -1.3711,1.3711l-244.29,0c-0.6875,0 -1.2656,-0.62891 -1.2656,-1.3711l0,-12.363c0,-9.7227 1.5664,-10.258 21.934,-42.73l203.05,0c9.4648,16.5 21.941,30.836 21.941,42.73l0.0017,0zm119.47,-82.621c0,10.344 -8.043,18.758 -17.934,18.758l-450.16,0c-9.8906,0 -17.938,-8.4141 -17.938,-18.758l-0.00391,-337.7c0,-10.344 8.0469,-18.758 17.938,-18.758l450.16,0c9.8906,0 17.934,8.4141 17.934,18.758l0.00391,337.7z" id="svg_15"/>
   <path d="m404.63,187.999c0,-77.465 -63.02,-140.48 -140.48,-140.48s-140.48,63.02 -140.48,140.48c0,41.242 17.973,78.273 46.367,104c-15.484,15.258 -23.977,33.848 -23.977,53.473l0,13.949c0,5.8359 4.7305,10.566 10.566,10.566l215.02,0c5.8359,0 10.566,-4.7305 10.566,-10.566l0,-13.949c0,-19.512 -8.4766,-38.105 -23.945,-53.465c28.398,-25.723 46.375,-62.758 46.375,-104l-0.012,-0.008zm-259.84,0c0,-65.812 53.543,-119.35 119.35,-119.35c65.812,0 119.35,53.543 119.35,119.35c0,65.809 -53.539,119.35 -119.35,119.35s-119.35,-53.543 -119.35,-119.35zm216.27,157.47l0,3.3828l-193.88,0l0,-3.3828c0,-14.59 6.8906,-28.703 19.555,-40.348c22.215,14.73 48.812,23.363 77.406,23.363c28.59,0 55.184,-8.6289 77.398,-23.359c12.645,11.746 19.523,25.855 19.523,40.344l-0.002,0z" id="svg_16"/>
   <path d="m264.15,263.199c41.465,0 75.199,-33.734 75.199,-75.199c0,-41.465 -33.734,-75.203 -75.199,-75.203s-75.199,33.734 -75.199,75.199s33.734,75.203 75.199,75.203zm0,-129.27c29.816,0 54.07,24.254 54.07,54.07c0,29.812 -24.254,54.066 -54.07,54.066s-54.07,-24.254 -54.07,-54.07c0,-29.812 24.254,-54.066 54.07,-54.066z" id="svg_17"/>
   <path d="m258.53,223.769c1.9102,0.28906 3.793,0.42969 5.6445,0.42969c10.566,0 20.578,-4.6016 27.469,-12.621c6.8828,-8.0156 9.9062,-18.664 8.2891,-29.215c-2.3477,-15.379 -14.73,-27.766 -30.121,-30.121c-12.832,-1.9648 -25.016,2.7617 -33.102,12.188c-6.8867,8.0156 -9.9102,18.664 -8.3008,29.223c2.3477,15.379 14.73,27.766 30.121,30.117l0.0002,-0.00069zm-5.7891,-45.57c2.8633,-3.3398 7.0312,-5.2539 11.426,-5.2539c0.80469,0 1.625,0.0625 2.4492,0.1875c6.2461,0.95312 11.469,6.1758 12.422,12.422c0.69141,4.5195 -0.53125,8.875 -3.4375,12.258c-3.3945,3.9531 -8.543,5.8672 -13.883,5.0664c-6.2461,-0.95312 -11.469,-6.1758 -12.418,-12.418c-0.6875,-4.5234 0.53125,-8.8789 3.4414,-12.262l-0.0001,0z" id="svg_18"/>
  </g>
 </g>
</svg>
